<svg width="200" height="200" viewBox="0 0 200 200" fill="none" xmlns="http://www.w3.org/2000/svg">
<path d="M57 82.6652L101 100.143M57 82.6652L7 100.143M57 82.6652V42.8884M145 117.621L101 100.143M145 117.621L192 100.143M145 117.621V161M101 100.143L145 82.6652M101 100.143L57 117.621M101 100.143V144M101 100.143V58.558M145 82.6652L192 100.143M145 82.6652V42.8884M57 117.621L7 100.143M57 117.621V161M7 100.143V144L57 161M192 100.143V144L145 161M145 161L101 144M101 144L57 161M57 42.8884L101 23L145 42.8884M57 42.8884L101 58.558M145 42.8884L101 58.558" stroke="#1A90FF" stroke-width="7"/>
<path d="M58 161V117.429L7 100V140.89L58 161Z" fill="#1A90FF"/>
<path d="M102 145V103.5L144.5 120V159L122.5 152L102 145Z" fill="#1A90FF"/>
<path d="M58 45L100 61.5V98L58 81V45Z" fill="#1A90FF"/>
</svg>
