<?xml version="1.0" encoding="iso-8859-1"?>
<!-- Generator: Adobe Illustrator 19.0.0, SVG Export Plug-In . SVG Version: 6.00 Build 0)  -->
<svg version="1.1" id="Layer_1" xmlns="http://www.w3.org/2000/svg" xmlns:xlink="http://www.w3.org/1999/xlink" x="0px" y="0px"
	 viewBox="0 0 342.109 342.109" style="enable-background:new 0 0 342.109 342.109;" xml:space="preserve">
<g id="XMLID_12_">
	<g id="XMLID_52_">
		<path id="XMLID_990_" style="fill:#FFFFFF;" d="M250.429,249.259v92.74H91.679v-92.77c0.01-0.01,0.02-0.01,0.03-0.02
			c3.95-2.37,12.43-4.38,19.82-5.99v50.32h119.06v-50.27C237.989,244.869,246.469,246.889,250.429,249.259z"/>
	</g>
	<g id="XMLID_45_">
		<path id="XMLID_993_" style="fill:#545465;" d="M270.54,283.677c26.39-24.059,11.154-120.469,11.154-142.407
			C281.694,59.796,238.948,0,171.054,0S60.414,59.796,60.414,141.269c0,21.938-15.236,118.348,11.154,142.407
			C108.327,317.19,233.781,317.19,270.54,283.677z"/>
		<path id="XMLID_996_" style="fill:#494857;" d="M281.694,141.27C281.694,59.796,238.948,0,171.054,0v308.812
			c40.553,0,81.107-8.378,99.486-25.135C296.93,259.617,281.694,163.208,281.694,141.27z"/>
	</g>
	<g id="XMLID_41_">
		<g id="XMLID_997_">
			<path id="XMLID_998_" style="fill:#F3D8B6;" d="M199.383,187.53h-26.884h-1.256h-0.379h-1.256h-26.884
				c0,74.552-36.43,67.808-36.43,67.808c0,47.368,51.162,62.392,63.313,66.806v1.537c0,0,0.533-0.11,1.446-0.359
				c0.912,0.249,1.446,0.359,1.446,0.359v-1.537c12.151-4.414,63.313-19.439,63.313-66.806
				C235.813,255.338,199.383,262.082,199.383,187.53z"/>
		</g>
		<path id="XMLID_999_" style="fill:#EEC8A2;" d="M199.383,187.53h-26.884h-1.256h-0.189v135.792
			c0.912,0.249,1.446,0.359,1.446,0.359v-1.537c12.151-4.414,63.313-19.438,63.313-66.806
			C235.813,255.338,199.383,262.082,199.383,187.53z"/>
	</g>
	<g id="XMLID_38_">
		<path id="XMLID_40_" style="fill:#FF628B;" d="M288.044,320.259l-0.02,21.78v0.07l-102.36-0.07l-14.58-0.01l-43.91-0.03
			l-35.47-0.02l-37.64-0.03l0.02-21.85c0-3.12,0.15-6.19,0.45-9.22c1.48-15.11,6.59-28.97,14.57-40.41
			c6-8.62,13.64-15.86,22.6-21.24c0.01-0.01,0.02-0.01,0.03-0.02c3.95-2.37,12.43-4.38,19.82-5.99c3.93-0.84,7.55-1.58,10.03-2.19
			c2.404-0.598,49.488,33.275,49.488,33.275s47.337-33.757,49.572-33.195c2.47,0.61,6.07,1.35,9.97,2.19
			c7.39,1.61,15.86,3.62,19.84,6c0.01,0,0.03,0.01,0.04,0.02c4.35,2.62,8.39,5.68,12.08,9.12c0.92,0.86,1.81,1.74,2.7,2.64v0.01
			c0.58,0.61,1.16,1.22,1.73,1.85c0.34,0.37,0.67,0.75,1,1.13c0.22,0.26,0.44,0.52,0.66,0.78c0.29,0.33,0.56,0.66,0.84,1
			c0.26,0.32,0.52,0.64,0.77,0.96c0.26,0.33,0.52,0.67,0.78,1C281.874,281.979,288.054,300.279,288.044,320.259z"/>
		<path id="XMLID_39_" style="fill:#C85279;" d="M271.054,267.809c-0.26-0.33-0.52-0.67-0.78-1c-0.25-0.32-0.51-0.64-0.77-0.96
			c-0.28-0.34-0.55-0.67-0.84-1c-0.22-0.26-0.44-0.52-0.66-0.78c-0.33-0.38-0.66-0.76-1-1.13c-0.57-0.63-1.15-1.24-1.73-1.85v-0.01
			c-0.89-0.9-1.78-1.78-2.7-2.64c-3.69-3.44-7.73-6.5-12.08-9.12c-0.01-0.01-0.03-0.02-0.04-0.02c-3.98-2.38-12.45-4.39-19.84-6
			c-3.9-0.84-7.5-1.58-9.97-2.19c-2.236-0.562-49.572,33.195-49.572,33.195s-0.012-0.008-0.018-0.013v67.737h0.03l14.58,0.01
			l102.36,0.07v-0.07l0.02-21.78C288.054,300.279,281.874,281.979,271.054,267.809z"/>
	</g>
	<g id="XMLID_35_">
		<path id="XMLID_1000_" style="fill:#F3DBC4;" d="M107.088,120.926c1.012,21.074,4.4,39.808,8.31,47.027
			c9.043,16.694,29.221,38.957,55.657,38.957c26.431,0,46.607-22.262,55.652-38.957c3.91-7.219,7.298-25.953,8.311-47.027H107.088z"
			/>
		<path id="XMLID_1001_" style="fill:#EDCEAE;" d="M171.054,120.926v85.984c0.001,0,0.001,0,0.002,0
			c26.431,0,46.607-22.262,55.652-38.957c3.91-7.219,7.298-25.953,8.311-47.027H171.054z"/>
	</g>
	<g id="XMLID_13_">
		<g id="XMLID_33_">
			<path id="XMLID_1003_" style="fill:#FFFFFF;" d="M250.429,249.259v92.74H91.679v-92.77c0.01-0.01,0.02-0.01,0.03-0.02
				c3.95-2.37,12.43-4.38,19.82-5.99v50.32h119.06v-50.27C237.989,244.869,246.469,246.889,250.429,249.259z"/>
		</g>
		<path id="XMLID_32_" style="fill:#DEDDE0;" d="M230.589,243.269v50.27h-59.535v48.46h79.375v-92.74
			C246.469,246.889,237.989,244.869,230.589,243.269z"/>
	</g>
</g>
<g>
</g>
<g>
</g>
<g>
</g>
<g>
</g>
<g>
</g>
<g>
</g>
<g>
</g>
<g>
</g>
<g>
</g>
<g>
</g>
<g>
</g>
<g>
</g>
<g>
</g>
<g>
</g>
<g>
</g>
</svg>
